<svg width="560" height="560" viewBox="0 0 560 560" fill="none" xmlns="http://www.w3.org/2000/svg">
<path d="M0 560H70V490H0L0 518.281L0 560Z" fill="#666E30"/>
<path d="M0 490H70V420H0L0 448.281L0 490Z" fill="#FCB360"/>
<path d="M0 420H70V350H0L0 378.281L0 420Z" fill="#666E30"/>
<path d="M0 350H70V280H0L0 308.281L0 350Z" fill="#FCB360"/>
<path d="M0 280H70V210H0L0 238.281L0 280Z" fill="#666E30"/>
<path d="M0 210H70V140H0L0 168.281L0 210Z" fill="#FCB360"/>
<path d="M0 140H70V70H0L0 98.2812L0 140Z" fill="#666E30"/>
<path d="M0 70H70V0H0L0 28.2812L0 70Z" fill="#FCB360"/>
<path d="M70 560H140V490H70V518.281V560Z" fill="#FCB360"/>
<path d="M70 490H140V420H70V448.281V490Z" fill="#666E30"/>
<path d="M70 420H140V350H70V378.281V420Z" fill="#FCB360"/>
<path d="M70 350H140V280H70V308.281V350Z" fill="#666E30"/>
<path d="M70 280H140V210H70V238.281V280Z" fill="#FCB360"/>
<path d="M70 210H140V140H70V168.281V210Z" fill="#666E30"/>
<path d="M70 140H140V70H70V98.2812V140Z" fill="#FCB360"/>
<path d="M70 70H140V0H70V28.2812V70Z" fill="#666E30"/>
<path d="M140 560H210V490H140V518.281V560Z" fill="#666E30"/>
<path d="M140 490H210V420H140V448.281V490Z" fill="#FCB360"/>
<path d="M140 420H210V350H140V378.281V420Z" fill="#666E30"/>
<path d="M140 350H210V280H140V308.281V350Z" fill="#FCB360"/>
<path d="M140 280H210V210H140V238.281V280Z" fill="#666E30"/>
<path d="M140 210H210V140H140V168.281V210Z" fill="#FCB360"/>
<path d="M140 140H210V70H140V98.2812V140Z" fill="#666E30"/>
<path d="M140 70H210V0H140V28.2812V70Z" fill="#FCB360"/>
<path d="M210 560H280V490H210V518.281V560Z" fill="#FCB360"/>
<path d="M210 490H280V420H210V448.281V490Z" fill="#666E30"/>
<path d="M210 420H280V350H210V378.281V420Z" fill="#FCB360"/>
<path d="M210 350H280V280H210V308.281V350Z" fill="#666E30"/>
<path d="M210 280H280V210H210V238.281V280Z" fill="#FCB360"/>
<path d="M210 210H280V140H210V168.281V210Z" fill="#666E30"/>
<path d="M210 140H280V70H210V98.2812V140Z" fill="#FCB360"/>
<path d="M210 140H280V70H210V98.2812V140Z" fill="#FCB360"/>
<path d="M210 70H280V0H210V28.2812V70Z" fill="#666E30"/>
<path d="M280 560H350V490H280V518.281V560Z" fill="#666E30"/>
<path d="M280 490H350V420H280V448.281V490Z" fill="#FCB360"/>
<path d="M280 420H350V350H280V378.281V420Z" fill="#666E30"/>
<path d="M280 350H350V280H280V308.281V350Z" fill="#FCB360"/>
<path d="M280 280H350V210H280V238.281V280Z" fill="#666E30"/>
<path d="M280 210H350V140H280V168.281V210Z" fill="#FCB360"/>
<path d="M280 140H350V70H280V98.2812V140Z" fill="#666E30"/>
<path d="M280 70H350V0H280V28.2812V70Z" fill="#FCB360"/>
<path d="M350 560H420V490H350V518.281V560Z" fill="#FCB360"/>
<path d="M350 490H420V420H350V448.281V490Z" fill="#666E30"/>
<path d="M350 420H420V350H350V378.281V420Z" fill="#FCB360"/>
<path d="M350 350H420V280H350V308.281V350Z" fill="#666E30"/>
<path d="M350 280H420V210H350V238.281V280Z" fill="#FCB360"/>
<path d="M350 210H420V140H350V168.281V210Z" fill="#666E30"/>
<path d="M350 140H420V70H350V98.2812V140Z" fill="#FCB360"/>
<path d="M350 70H420V0H350V28.2812V70Z" fill="#666E30"/>
<path d="M420 560H490V490H420V518.281V560Z" fill="#666E30"/>
<path d="M420 490H490V420H420V448.281V490Z" fill="#FCB360"/>
<path d="M420 420H490V350H420V378.281V420Z" fill="#666E30"/>
<path d="M420 350H490V280H420V308.281V350Z" fill="#FCB360"/>
<path d="M420 280H490V210H420V238.281V280Z" fill="#666E30"/>
<path d="M420 210H490V140H420V168.281V210Z" fill="#FCB360"/>
<path d="M420 140H490V70H420V98.2812V140Z" fill="#666E30"/>
<path d="M420 70H490V0H420V28.2812V70Z" fill="#FCB360"/>
<path d="M490 560H560V490H490V518.281V560Z" fill="#FCB360"/>
<path d="M490 490H560V420H490V448.281V490Z" fill="#666E30"/>
<path d="M490 420H560V350H490V378.281V420Z" fill="#FCB360"/>
<path d="M490 350H560V280H490V308.281V350Z" fill="#666E30"/>
<path d="M490 280H560V210H490V238.281V280Z" fill="#FCB360"/>
<path d="M490 210H560V140H490V168.281V210Z" fill="#666E30"/>
<path d="M490 140H560V70H490V98.2812V140Z" fill="#FCB360"/>
<path d="M490 70H560V0H490V28.2812V70Z" fill="#666E30"/>
<path d="M115.376 91.7696C115.034 91.9914 114.646 92.2494 114.236 92.5343C112.899 93.4625 111.192 94.764 110.098 96.0749C107.528 99.1568 107.904 103.384 109.323 107.433C110.768 111.554 113.462 116.004 116.345 120.054C118.989 123.77 121.843 127.218 124.158 129.864L105.591 121.907L105 121.654L104.409 121.907L85.8421 129.864C88.1574 127.218 91.011 123.77 93.6555 120.054C96.5379 116.004 99.2317 111.554 100.677 107.433C102.096 103.384 102.472 99.1568 99.9019 96.0749C98.8085 94.764 97.1013 93.4625 95.7643 92.5343C95.3541 92.2494 94.9665 91.9914 94.6245 91.7696L105 76.6509L115.376 91.7696Z" fill="white" stroke="#666E30" stroke-width="3"/>
<path d="M115.376 91.7696C115.034 91.9914 114.646 92.2494 114.236 92.5343C112.899 93.4625 111.192 94.764 110.098 96.0749C107.528 99.1568 107.904 103.384 109.323 107.433C110.768 111.554 113.462 116.004 116.345 120.054C118.989 123.77 121.843 127.218 124.158 129.864L105.591 121.907L105 121.654L104.409 121.907L85.8421 129.864C88.1574 127.218 91.011 123.77 93.6555 120.054C96.5379 116.004 99.2317 111.554 100.677 107.433C102.096 103.384 102.472 99.1568 99.9019 96.0749C98.8085 94.764 97.1013 93.4625 95.7643 92.5343C95.3541 92.2494 94.9665 91.9914 94.6245 91.7696L105 76.6509L115.376 91.7696Z" fill="white" stroke="#666E30" stroke-width="3"/>
<path d="M115.376 91.7696C115.034 91.9914 114.646 92.2494 114.236 92.5343C112.899 93.4625 111.192 94.764 110.098 96.0749C107.528 99.1568 107.904 103.384 109.323 107.433C110.768 111.554 113.462 116.004 116.345 120.054C118.989 123.77 121.843 127.218 124.158 129.864L105.591 121.907L105 121.654L104.409 121.907L85.8421 129.864C88.1574 127.218 91.011 123.77 93.6555 120.054C96.5379 116.004 99.2317 111.554 100.677 107.433C102.096 103.384 102.472 99.1568 99.9019 96.0749C98.8085 94.764 97.1013 93.4625 95.7643 92.5343C95.3541 92.2494 94.9665 91.9914 94.6245 91.7696L105 76.6509L115.376 91.7696Z" fill="white" stroke="#666E30" stroke-width="3"/>
<path d="M115.376 442.77C115.034 442.991 114.646 443.249 114.236 443.534C112.899 444.463 111.192 445.764 110.098 447.075C107.528 450.157 107.904 454.384 109.323 458.433C110.768 462.554 113.462 467.004 116.345 471.054C118.989 474.77 121.843 478.218 124.158 480.864L105.591 472.907L105 472.654L104.409 472.907L85.8421 480.864C88.1574 478.218 91.011 474.77 93.6555 471.054C96.5379 467.004 99.2317 462.554 100.677 458.433C102.096 454.384 102.472 450.157 99.9019 447.075C98.8085 445.764 97.1013 444.463 95.7643 443.534C95.3541 443.249 94.9665 442.991 94.6245 442.77L105 427.651L115.376 442.77Z" fill="white" stroke="#FCB360" stroke-width="3"/>
<path d="M45.3755 91.7696C45.0335 91.9914 44.6459 92.2494 44.2357 92.5343C42.8987 93.4625 41.1915 94.764 40.0981 96.0749C37.5276 99.1568 37.9043 103.384 39.3235 107.433C40.7683 111.554 43.4621 116.004 46.3445 120.054C48.989 123.77 51.8426 127.218 54.1579 129.864L35.5909 121.907L35 121.654L34.4091 121.907L15.8421 129.864C18.1574 127.218 21.011 123.77 23.6555 120.054C26.5379 116.004 29.2317 111.554 30.6765 107.433C32.0957 103.384 32.4724 99.1568 29.9019 96.0749C28.8085 94.764 27.1013 93.4625 25.7643 92.5343C25.3541 92.2494 24.9665 91.9914 24.6245 91.7696L35 76.6509L45.3755 91.7696Z" fill="white" stroke="#666E30" stroke-width="3"/>
<path d="M45.3755 91.7696C45.0335 91.9914 44.6459 92.2494 44.2357 92.5343C42.8987 93.4625 41.1915 94.764 40.0981 96.0749C37.5276 99.1568 37.9043 103.384 39.3235 107.433C40.7683 111.554 43.4621 116.004 46.3445 120.054C48.989 123.77 51.8426 127.218 54.1579 129.864L35.5909 121.907L35 121.654L34.4091 121.907L15.8421 129.864C18.1574 127.218 21.011 123.77 23.6555 120.054C26.5379 116.004 29.2317 111.554 30.6765 107.433C32.0957 103.384 32.4724 99.1568 29.9019 96.0749C28.8085 94.764 27.1013 93.4625 25.7643 92.5343C25.3541 92.2494 24.9665 91.9914 24.6245 91.7696L35 76.6509L45.3755 91.7696Z" fill="white" stroke="#666E30" stroke-width="3"/>
<path d="M45.3755 91.7696C45.0335 91.9914 44.6459 92.2494 44.2357 92.5343C42.8987 93.4625 41.1915 94.764 40.0981 96.0749C37.5276 99.1568 37.9043 103.384 39.3235 107.433C40.7683 111.554 43.4621 116.004 46.3445 120.054C48.989 123.77 51.8426 127.218 54.1579 129.864L35.5909 121.907L35 121.654L34.4091 121.907L15.8421 129.864C18.1574 127.218 21.011 123.77 23.6555 120.054C26.5379 116.004 29.2317 111.554 30.6765 107.433C32.0957 103.384 32.4724 99.1568 29.9019 96.0749C28.8085 94.764 27.1013 93.4625 25.7643 92.5343C25.3541 92.2494 24.9665 91.9914 24.6245 91.7696L35 76.6509L45.3755 91.7696Z" fill="white" stroke="#666E30" stroke-width="3"/>
<path d="M45.3755 442.77C45.0335 442.991 44.6459 443.249 44.2357 443.534C42.8987 444.463 41.1915 445.764 40.0981 447.075C37.5276 450.157 37.9043 454.384 39.3235 458.433C40.7683 462.554 43.4621 467.004 46.3445 471.054C48.989 474.77 51.8426 478.218 54.1579 480.864L35.5909 472.907L35 472.654L34.4091 472.907L15.8421 480.864C18.1574 478.218 21.011 474.77 23.6555 471.054C26.5379 467.004 29.2317 462.554 30.6765 458.433C32.0957 454.384 32.4724 450.157 29.9019 447.075C28.8085 445.764 27.1013 444.463 25.7643 443.534C25.3541 443.249 24.9665 442.991 24.6245 442.77L35 427.651L45.3755 442.77Z" fill="white" stroke="#FCB360" stroke-width="3"/>
<path d="M185.376 91.7696C185.034 91.9914 184.646 92.2494 184.236 92.5343C182.899 93.4625 181.192 94.764 180.098 96.0749C177.528 99.1568 177.904 103.384 179.323 107.433C180.768 111.554 183.462 116.004 186.345 120.054C188.989 123.77 191.843 127.218 194.158 129.864L175.591 121.907L175 121.654L174.409 121.907L155.842 129.864C158.157 127.218 161.011 123.77 163.655 120.054C166.538 116.004 169.232 111.554 170.677 107.433C172.096 103.384 172.472 99.1568 169.902 96.0749C168.809 94.764 167.101 93.4625 165.764 92.5343C165.354 92.2494 164.966 91.9914 164.624 91.7696L175 76.6509L185.376 91.7696Z" fill="white" stroke="#666E30" stroke-width="3"/>
<path d="M185.376 91.7696C185.034 91.9914 184.646 92.2494 184.236 92.5343C182.899 93.4625 181.192 94.764 180.098 96.0749C177.528 99.1568 177.904 103.384 179.323 107.433C180.768 111.554 183.462 116.004 186.345 120.054C188.989 123.77 191.843 127.218 194.158 129.864L175.591 121.907L175 121.654L174.409 121.907L155.842 129.864C158.157 127.218 161.011 123.77 163.655 120.054C166.538 116.004 169.232 111.554 170.677 107.433C172.096 103.384 172.472 99.1568 169.902 96.0749C168.809 94.764 167.101 93.4625 165.764 92.5343C165.354 92.2494 164.966 91.9914 164.624 91.7696L175 76.6509L185.376 91.7696Z" fill="white" stroke="#666E30" stroke-width="3"/>
<path d="M185.376 91.7696C185.034 91.9914 184.646 92.2494 184.236 92.5343C182.899 93.4625 181.192 94.764 180.098 96.0749C177.528 99.1568 177.904 103.384 179.323 107.433C180.768 111.554 183.462 116.004 186.345 120.054C188.989 123.77 191.843 127.218 194.158 129.864L175.591 121.907L175 121.654L174.409 121.907L155.842 129.864C158.157 127.218 161.011 123.77 163.655 120.054C166.538 116.004 169.232 111.554 170.677 107.433C172.096 103.384 172.472 99.1568 169.902 96.0749C168.809 94.764 167.101 93.4625 165.764 92.5343C165.354 92.2494 164.966 91.9914 164.624 91.7696L175 76.6509L185.376 91.7696Z" fill="white" stroke="#666E30" stroke-width="3"/>
<path d="M185.376 442.77C185.034 442.991 184.646 443.249 184.236 443.534C182.899 444.463 181.192 445.764 180.098 447.075C177.528 450.157 177.904 454.384 179.323 458.433C180.768 462.554 183.462 467.004 186.345 471.054C188.989 474.77 191.843 478.218 194.158 480.864L175.591 472.907L175 472.654L174.409 472.907L155.842 480.864C158.157 478.218 161.011 474.77 163.655 471.054C166.538 467.004 169.232 462.554 170.677 458.433C172.096 454.384 172.472 450.157 169.902 447.075C168.809 445.764 167.101 444.463 165.764 443.534C165.354 443.249 164.966 442.991 164.624 442.77L175 427.651L185.376 442.77Z" fill="white" stroke="#FCB360" stroke-width="3"/>
<path d="M255.376 91.7696C255.034 91.9914 254.646 92.2494 254.236 92.5343C252.899 93.4625 251.192 94.764 250.098 96.0749C247.528 99.1568 247.904 103.384 249.323 107.433C250.768 111.554 253.462 116.004 256.345 120.054C258.989 123.77 261.843 127.218 264.158 129.864L245.591 121.907L245 121.654L244.409 121.907L225.842 129.864C228.157 127.218 231.011 123.77 233.655 120.054C236.538 116.004 239.232 111.554 240.677 107.433C242.096 103.384 242.472 99.1568 239.902 96.0749C238.809 94.764 237.101 93.4625 235.764 92.5343C235.354 92.2494 234.966 91.9914 234.624 91.7696L245 76.6509L255.376 91.7696Z" fill="white" stroke="#666E30" stroke-width="3"/>
<path d="M255.376 91.7696C255.034 91.9914 254.646 92.2494 254.236 92.5343C252.899 93.4625 251.192 94.764 250.098 96.0749C247.528 99.1568 247.904 103.384 249.323 107.433C250.768 111.554 253.462 116.004 256.345 120.054C258.989 123.77 261.843 127.218 264.158 129.864L245.591 121.907L245 121.654L244.409 121.907L225.842 129.864C228.157 127.218 231.011 123.77 233.655 120.054C236.538 116.004 239.232 111.554 240.677 107.433C242.096 103.384 242.472 99.1568 239.902 96.0749C238.809 94.764 237.101 93.4625 235.764 92.5343C235.354 92.2494 234.966 91.9914 234.624 91.7696L245 76.6509L255.376 91.7696Z" fill="white" stroke="#666E30" stroke-width="3"/>
<path d="M255.376 442.77C255.034 442.991 254.646 443.249 254.236 443.534C252.899 444.463 251.192 445.764 250.098 447.075C247.528 450.157 247.904 454.384 249.323 458.433C250.768 462.554 253.462 467.004 256.345 471.054C258.989 474.77 261.843 478.218 264.158 480.864L245.591 472.907L245 472.654L244.409 472.907L225.842 480.864C228.157 478.218 231.011 474.77 233.655 471.054C236.538 467.004 239.232 462.554 240.677 458.433C242.096 454.384 242.472 450.157 239.902 447.075C238.809 445.764 237.101 444.463 235.764 443.534C235.354 443.249 234.966 442.991 234.624 442.77L245 427.651L255.376 442.77Z" fill="white" stroke="#FCB360" stroke-width="3"/>
<path d="M325.376 91.7696C325.034 91.9914 324.646 92.2494 324.236 92.5343C322.899 93.4625 321.192 94.764 320.098 96.0749C317.528 99.1568 317.904 103.384 319.323 107.433C320.768 111.554 323.462 116.004 326.345 120.054C328.989 123.77 331.843 127.218 334.158 129.864L315.591 121.907L315 121.654L314.409 121.907L295.842 129.864C298.157 127.218 301.011 123.77 303.655 120.054C306.538 116.004 309.232 111.554 310.677 107.433C312.096 103.384 312.472 99.1568 309.902 96.0749C308.809 94.764 307.101 93.4625 305.764 92.5343C305.354 92.2494 304.966 91.9914 304.624 91.7696L315 76.6509L325.376 91.7696Z" fill="white" stroke="#666E30" stroke-width="3"/>
<path d="M325.376 91.7696C325.034 91.9914 324.646 92.2494 324.236 92.5343C322.899 93.4625 321.192 94.764 320.098 96.0749C317.528 99.1568 317.904 103.384 319.323 107.433C320.768 111.554 323.462 116.004 326.345 120.054C328.989 123.77 331.843 127.218 334.158 129.864L315.591 121.907L315 121.654L314.409 121.907L295.842 129.864C298.157 127.218 301.011 123.77 303.655 120.054C306.538 116.004 309.232 111.554 310.677 107.433C312.096 103.384 312.472 99.1568 309.902 96.0749C308.809 94.764 307.101 93.4625 305.764 92.5343C305.354 92.2494 304.966 91.9914 304.624 91.7696L315 76.6509L325.376 91.7696Z" fill="white" stroke="#666E30" stroke-width="3"/>
<path d="M325.376 91.7696C325.034 91.9914 324.646 92.2494 324.236 92.5343C322.899 93.4625 321.192 94.764 320.098 96.0749C317.528 99.1568 317.904 103.384 319.323 107.433C320.768 111.554 323.462 116.004 326.345 120.054C328.989 123.77 331.843 127.218 334.158 129.864L315.591 121.907L315 121.654L314.409 121.907L295.842 129.864C298.157 127.218 301.011 123.77 303.655 120.054C306.538 116.004 309.232 111.554 310.677 107.433C312.096 103.384 312.472 99.1568 309.902 96.0749C308.809 94.764 307.101 93.4625 305.764 92.5343C305.354 92.2494 304.966 91.9914 304.624 91.7696L315 76.6509L325.376 91.7696Z" fill="white" stroke="#666E30" stroke-width="3"/>
<path d="M325.376 442.77C325.034 442.991 324.646 443.249 324.236 443.534C322.899 444.463 321.192 445.764 320.098 447.075C317.528 450.157 317.904 454.384 319.323 458.433C320.768 462.554 323.462 467.004 326.345 471.054C328.989 474.77 331.843 478.218 334.158 480.864L315.591 472.907L315 472.654L314.409 472.907L295.842 480.864C298.157 478.218 301.011 474.77 303.655 471.054C306.538 467.004 309.232 462.554 310.677 458.433C312.096 454.384 312.472 450.157 309.902 447.075C308.809 445.764 307.101 444.463 305.764 443.534C305.354 443.249 304.966 442.991 304.624 442.77L315 427.651L325.376 442.77Z" fill="white" stroke="#FCB360" stroke-width="3"/>
<path d="M395.376 91.7696C395.034 91.9914 394.646 92.2494 394.236 92.5343C392.899 93.4625 391.192 94.764 390.098 96.0749C387.528 99.1568 387.904 103.384 389.323 107.433C390.768 111.554 393.462 116.004 396.345 120.054C398.989 123.77 401.843 127.218 404.158 129.864L385.591 121.907L385 121.654L384.409 121.907L365.842 129.864C368.157 127.218 371.011 123.77 373.655 120.054C376.538 116.004 379.232 111.554 380.677 107.433C382.096 103.384 382.472 99.1568 379.902 96.0749C378.809 94.764 377.101 93.4625 375.764 92.5343C375.354 92.2494 374.966 91.9914 374.624 91.7696L385 76.6509L395.376 91.7696Z" fill="white" stroke="#666E30" stroke-width="3"/>
<path d="M395.376 91.7696C395.034 91.9914 394.646 92.2494 394.236 92.5343C392.899 93.4625 391.192 94.764 390.098 96.0749C387.528 99.1568 387.904 103.384 389.323 107.433C390.768 111.554 393.462 116.004 396.345 120.054C398.989 123.77 401.843 127.218 404.158 129.864L385.591 121.907L385 121.654L384.409 121.907L365.842 129.864C368.157 127.218 371.011 123.77 373.655 120.054C376.538 116.004 379.232 111.554 380.677 107.433C382.096 103.384 382.472 99.1568 379.902 96.0749C378.809 94.764 377.101 93.4625 375.764 92.5343C375.354 92.2494 374.966 91.9914 374.624 91.7696L385 76.6509L395.376 91.7696Z" fill="white" stroke="#666E30" stroke-width="3"/>
<path d="M395.376 91.7696C395.034 91.9914 394.646 92.2494 394.236 92.5343C392.899 93.4625 391.192 94.764 390.098 96.0749C387.528 99.1568 387.904 103.384 389.323 107.433C390.768 111.554 393.462 116.004 396.345 120.054C398.989 123.77 401.843 127.218 404.158 129.864L385.591 121.907L385 121.654L384.409 121.907L365.842 129.864C368.157 127.218 371.011 123.77 373.655 120.054C376.538 116.004 379.232 111.554 380.677 107.433C382.096 103.384 382.472 99.1568 379.902 96.0749C378.809 94.764 377.101 93.4625 375.764 92.5343C375.354 92.2494 374.966 91.9914 374.624 91.7696L385 76.6509L395.376 91.7696Z" fill="white" stroke="#666E30" stroke-width="3"/>
<path d="M395.376 442.77C395.034 442.991 394.646 443.249 394.236 443.534C392.899 444.463 391.192 445.764 390.098 447.075C387.528 450.157 387.904 454.384 389.323 458.433C390.768 462.554 393.462 467.004 396.345 471.054C398.989 474.77 401.843 478.218 404.158 480.864L385.591 472.907L385 472.654L384.409 472.907L365.842 480.864C368.157 478.218 371.011 474.77 373.655 471.054C376.538 467.004 379.232 462.554 380.677 458.433C382.096 454.384 382.472 450.157 379.902 447.075C378.809 445.764 377.101 444.463 375.764 443.534C375.354 443.249 374.966 442.991 374.624 442.77L385 427.651L395.376 442.77Z" fill="white" stroke="#FCB360" stroke-width="3"/>
<path d="M465.376 91.7696C465.034 91.9914 464.646 92.2494 464.236 92.5343C462.899 93.4625 461.192 94.764 460.098 96.0749C457.528 99.1568 457.904 103.384 459.323 107.433C460.768 111.554 463.462 116.004 466.345 120.054C468.989 123.77 471.843 127.218 474.158 129.864L455.591 121.907L455 121.654L454.409 121.907L435.842 129.864C438.157 127.218 441.011 123.77 443.655 120.054C446.538 116.004 449.232 111.554 450.677 107.433C452.096 103.384 452.472 99.1568 449.902 96.0749C448.809 94.764 447.101 93.4625 445.764 92.5343C445.354 92.2494 444.966 91.9914 444.624 91.7696L455 76.6509L465.376 91.7696Z" fill="white" stroke="#666E30" stroke-width="3"/>
<path d="M465.376 91.7696C465.034 91.9914 464.646 92.2494 464.236 92.5343C462.899 93.4625 461.192 94.764 460.098 96.0749C457.528 99.1568 457.904 103.384 459.323 107.433C460.768 111.554 463.462 116.004 466.345 120.054C468.989 123.77 471.843 127.218 474.158 129.864L455.591 121.907L455 121.654L454.409 121.907L435.842 129.864C438.157 127.218 441.011 123.77 443.655 120.054C446.538 116.004 449.232 111.554 450.677 107.433C452.096 103.384 452.472 99.1568 449.902 96.0749C448.809 94.764 447.101 93.4625 445.764 92.5343C445.354 92.2494 444.966 91.9914 444.624 91.7696L455 76.6509L465.376 91.7696Z" fill="white" stroke="#666E30" stroke-width="3"/>
<path d="M465.376 91.7696C465.034 91.9914 464.646 92.2494 464.236 92.5343C462.899 93.4625 461.192 94.764 460.098 96.0749C457.528 99.1568 457.904 103.384 459.323 107.433C460.768 111.554 463.462 116.004 466.345 120.054C468.989 123.77 471.843 127.218 474.158 129.864L455.591 121.907L455 121.654L454.409 121.907L435.842 129.864C438.157 127.218 441.011 123.77 443.655 120.054C446.538 116.004 449.232 111.554 450.677 107.433C452.096 103.384 452.472 99.1568 449.902 96.0749C448.809 94.764 447.101 93.4625 445.764 92.5343C445.354 92.2494 444.966 91.9914 444.624 91.7696L455 76.6509L465.376 91.7696Z" fill="white" stroke="#666E30" stroke-width="3"/>
<path d="M465.376 442.77C465.034 442.991 464.646 443.249 464.236 443.534C462.899 444.463 461.192 445.764 460.098 447.075C457.528 450.157 457.904 454.384 459.323 458.433C460.768 462.554 463.462 467.004 466.345 471.054C468.989 474.77 471.843 478.218 474.158 480.864L455.591 472.907L455 472.654L454.409 472.907L435.842 480.864C438.157 478.218 441.011 474.77 443.655 471.054C446.538 467.004 449.232 462.554 450.677 458.433C452.096 454.384 452.472 450.157 449.902 447.075C448.809 445.764 447.101 444.463 445.764 443.534C445.354 443.249 444.966 442.991 444.624 442.77L455 427.651L465.376 442.77Z" fill="white" stroke="#FCB360" stroke-width="3"/>
<path d="M432.912 20.4893C434.043 20.0815 435.284 19.651 436.604 19.2207C442.394 17.3323 449.518 15.5 455.25 15.5C460.982 15.5 468.106 17.3323 473.896 19.2207C475.216 19.651 476.457 20.0815 477.588 20.4893C474.083 20.9089 469.722 21.7954 466.888 23.7842C463.902 25.8803 462.681 28.0705 461.369 30.4226C461.007 31.0726 460.637 31.7351 460.222 32.4113C457.714 36.4944 456.186 41.7245 455.25 46.7054C454.314 41.7245 452.786 36.4944 450.278 32.4113C449.863 31.7351 449.493 31.0726 449.131 30.4226C447.819 28.0705 446.598 25.8803 443.612 23.7842C440.778 21.7954 436.417 20.9089 432.912 20.4893Z" fill="white" stroke="#666E30" stroke-width="3"/>
<path d="M432.912 511.489C434.043 511.081 435.284 510.651 436.604 510.221C442.394 508.332 449.518 506.5 455.25 506.5C460.982 506.5 468.106 508.332 473.896 510.221C475.216 510.651 476.457 511.081 477.588 511.489C474.083 511.909 469.722 512.795 466.888 514.784C463.902 516.88 462.681 519.07 461.369 521.423C461.007 522.073 460.637 522.735 460.222 523.411C457.714 527.494 456.186 532.725 455.25 537.705C454.314 532.725 452.786 527.494 450.278 523.411C449.863 522.735 449.493 522.073 449.131 521.423C447.819 519.07 446.598 516.88 443.612 514.784C440.778 512.795 436.417 511.909 432.912 511.489Z" fill="white" stroke="#FCB360" stroke-width="3"/>
<path d="M82.9123 20.4893C84.0426 20.0815 85.2844 19.651 86.6037 19.2207C92.3935 17.3323 99.5175 15.5 105.25 15.5C110.982 15.5 118.106 17.3323 123.896 19.2207C125.216 19.651 126.457 20.0815 127.588 20.4893C124.083 20.9089 119.722 21.7954 116.888 23.7842C113.902 25.8803 112.681 28.0705 111.369 30.4226C111.007 31.0726 110.637 31.7351 110.222 32.4113C107.714 36.4944 106.186 41.7245 105.25 46.7054C104.314 41.7245 102.786 36.4944 100.278 32.4113C99.8627 31.7351 99.4933 31.0726 99.1309 30.4226C97.8193 28.0705 96.5981 25.8803 93.6118 23.7842C90.7784 21.7954 86.4166 20.9089 82.9123 20.4893Z" fill="white" stroke="#666E30" stroke-width="3"/>
<path d="M82.9123 513.489C84.0426 513.081 85.2844 512.651 86.6037 512.221C92.3935 510.332 99.5175 508.5 105.25 508.5C110.982 508.5 118.106 510.332 123.896 512.221C125.216 512.651 126.457 513.081 127.588 513.489C124.083 513.909 119.722 514.795 116.888 516.784C113.902 518.88 112.681 521.07 111.369 523.423C111.007 524.073 110.637 524.735 110.222 525.411C107.714 529.494 106.186 534.725 105.25 539.705C104.314 534.725 102.786 529.494 100.278 525.411C99.8627 524.735 99.4933 524.073 99.1309 523.423C97.8193 521.07 96.5981 518.88 93.6118 516.784C90.7784 514.795 86.4166 513.909 82.9123 513.489Z" fill="white" stroke="#FCB360" stroke-width="3"/>
<path d="M513.666 26.0266L513.572 25.9536L513.467 25.8965L499.834 18.4844L525.25 10.571L550.666 18.4844L537.033 25.8965L536.928 25.9536L536.834 26.0266L530.584 30.848L529.6 31.6066L530.162 32.7143L547.043 65.9937L525.841 56.907L525.25 56.6538L524.659 56.907L503.457 65.9937L520.338 32.7143L520.9 31.6066L519.916 30.848L513.666 26.0266Z" fill="white" stroke="#666E30" stroke-width="3"/>
<path d="M513.666 515.027L513.572 514.954L513.467 514.896L499.834 507.484L525.25 499.571L550.666 507.484L537.033 514.896L536.928 514.954L536.834 515.027L530.584 519.848L529.6 520.607L530.162 521.714L547.043 554.994L525.841 545.907L525.25 545.654L524.659 545.907L503.457 554.994L520.338 521.714L520.9 520.607L519.916 519.848L513.666 515.027Z" fill="white" stroke="#FCB360" stroke-width="3"/>
<path d="M23.6662 26.0266L23.5715 25.9536L23.4665 25.8965L9.8341 18.4844L35.25 10.571L60.6659 18.4844L47.0335 25.8965L46.9285 25.9536L46.8338 26.0266L40.5838 30.848L39.6004 31.6066L40.1623 32.7143L57.0431 65.9937L35.8409 56.907L35.25 56.6538L34.6591 56.907L13.4569 65.9937L30.3377 32.7143L30.8996 31.6066L29.9162 30.848L23.6662 26.0266Z" fill="white" stroke="#666E30" stroke-width="3"/>
<path d="M23.6662 515.027L23.5715 514.954L23.4665 514.896L9.8341 507.484L35.25 499.571L60.6659 507.484L47.0335 514.896L46.9285 514.954L46.8338 515.027L40.5838 519.848L39.6004 520.607L40.1623 521.714L57.0431 554.994L35.8409 545.907L35.25 545.654L34.6591 545.907L13.4569 554.994L30.3377 521.714L30.8996 520.607L29.9162 519.848L23.6662 515.027Z" fill="white" stroke="#FCB360" stroke-width="3"/>
<path d="M535.376 91.7696C535.034 91.9914 534.646 92.2494 534.236 92.5343C532.899 93.4625 531.192 94.764 530.098 96.0749C527.528 99.1568 527.904 103.384 529.323 107.433C530.768 111.554 533.462 116.004 536.345 120.054C538.989 123.77 541.843 127.218 544.158 129.864L525.591 121.907L525 121.654L524.409 121.907L505.842 129.864C508.157 127.218 511.011 123.77 513.655 120.054C516.538 116.004 519.232 111.554 520.677 107.433C522.096 103.384 522.472 99.1568 519.902 96.0749C518.809 94.764 517.101 93.4625 515.764 92.5343C515.354 92.2494 514.966 91.9914 514.624 91.7696L525 76.6509L535.376 91.7696Z" fill="white" stroke="#666E30" stroke-width="3"/>
<path d="M535.376 91.7696C535.034 91.9914 534.646 92.2494 534.236 92.5343C532.899 93.4625 531.192 94.764 530.098 96.0749C527.528 99.1568 527.904 103.384 529.323 107.433C530.768 111.554 533.462 116.004 536.345 120.054C538.989 123.77 541.843 127.218 544.158 129.864L525.591 121.907L525 121.654L524.409 121.907L505.842 129.864C508.157 127.218 511.011 123.77 513.655 120.054C516.538 116.004 519.232 111.554 520.677 107.433C522.096 103.384 522.472 99.1568 519.902 96.0749C518.809 94.764 517.101 93.4625 515.764 92.5343C515.354 92.2494 514.966 91.9914 514.624 91.7696L525 76.6509L535.376 91.7696Z" fill="white" stroke="#666E30" stroke-width="3"/>
<path d="M535.376 91.7696C535.034 91.9914 534.646 92.2494 534.236 92.5343C532.899 93.4625 531.192 94.764 530.098 96.0749C527.528 99.1568 527.904 103.384 529.323 107.433C530.768 111.554 533.462 116.004 536.345 120.054C538.989 123.77 541.843 127.218 544.158 129.864L525.591 121.907L525 121.654L524.409 121.907L505.842 129.864C508.157 127.218 511.011 123.77 513.655 120.054C516.538 116.004 519.232 111.554 520.677 107.433C522.096 103.384 522.472 99.1568 519.902 96.0749C518.809 94.764 517.101 93.4625 515.764 92.5343C515.354 92.2494 514.966 91.9914 514.624 91.7696L525 76.6509L535.376 91.7696Z" fill="white" stroke="#666E30" stroke-width="3"/>
<path d="M535.376 442.77C535.034 442.991 534.646 443.249 534.236 443.534C532.899 444.463 531.192 445.764 530.098 447.075C527.528 450.157 527.904 454.384 529.323 458.433C530.768 462.554 533.462 467.004 536.345 471.054C538.989 474.77 541.843 478.218 544.158 480.864L525.591 472.907L525 472.654L524.409 472.907L505.842 480.864C508.157 478.218 511.011 474.77 513.655 471.054C516.538 467.004 519.232 462.554 520.677 458.433C522.096 454.384 522.472 450.157 519.902 447.075C518.809 445.764 517.101 444.463 515.764 443.534C515.354 443.249 514.966 442.991 514.624 442.77L525 427.651L535.376 442.77Z" fill="white" stroke="#FCB360" stroke-width="3"/>
<path d="M375.787 26.004C376.173 26.2648 376.587 26.5344 377.022 26.8044C379.421 28.2908 382.623 29.8771 385.494 29.8983C388.339 29.9194 391.541 28.4087 393.947 26.9842C394.389 26.7225 394.808 26.4608 395.199 26.2077L392.108 31.3746L388.595 34.5361L388.37 34.7388L388.348 35.0411L389.097 35.0935C388.348 35.0411 388.348 35.0413 388.348 35.0415L388.348 35.0421L388.348 35.044L388.348 35.0501L388.346 35.0716C388.346 35.0787 388.346 35.0869 388.345 35.0963C388.344 35.1115 388.343 35.1296 388.342 35.1507C388.338 35.2189 388.333 35.3178 388.328 35.4434C388.319 35.6947 388.31 36.0538 388.311 36.491C388.314 37.3635 388.359 38.5559 388.529 39.8267C388.698 41.0928 388.995 42.466 389.515 43.686C390.033 44.9016 390.801 46.0303 391.953 46.7093C393.763 47.7772 395.919 47.0238 397.859 45.7599C399.853 44.4612 401.924 42.4325 403.781 40.3432C405.141 38.8126 406.404 37.2286 407.46 35.8353L399.353 59.1605H371.647L363.54 35.8353C364.595 37.2286 365.859 38.8126 367.219 40.3432C369.076 42.4325 371.147 44.4612 373.14 45.7599C375.081 47.0238 377.237 47.7772 379.047 46.7093C380.198 46.0303 380.967 44.9016 381.485 43.686C382.005 42.466 382.302 41.0928 382.471 39.8267C382.641 38.5559 382.686 37.3635 382.688 36.491C382.69 36.0538 382.681 35.6947 382.671 35.4434C382.667 35.3178 382.662 35.2189 382.658 35.1507C382.657 35.1364 382.657 35.1235 382.656 35.1119C382.655 35.0958 382.654 35.0823 382.653 35.0716L382.652 35.0501L382.652 35.044L382.652 35.0421L382.651 35.0415C382.651 35.0413 382.651 35.0411 381.903 35.0935L382.651 35.0411L382.63 34.7388L382.405 34.5361L378.896 31.3783L375.787 26.004Z" fill="white" stroke="#666E30" stroke-width="1.5"/>
<path d="M375.787 515.004C376.173 515.265 376.587 515.534 377.022 515.804C379.421 517.291 382.623 518.877 385.494 518.898C388.339 518.919 391.541 517.409 393.947 515.984C394.389 515.723 394.808 515.461 395.199 515.208L392.108 520.375L388.595 523.536L388.37 523.739L388.348 524.041L389.097 524.094C388.348 524.041 388.348 524.041 388.348 524.041L388.348 524.042L388.348 524.044L388.348 524.05L388.346 524.072C388.346 524.079 388.346 524.087 388.345 524.096C388.344 524.111 388.343 524.13 388.342 524.151C388.338 524.219 388.333 524.318 388.328 524.443C388.319 524.695 388.31 525.054 388.311 525.491C388.314 526.363 388.359 527.556 388.529 528.827C388.698 530.093 388.995 531.466 389.515 532.686C390.033 533.902 390.801 535.03 391.953 535.709C393.763 536.777 395.919 536.024 397.859 534.76C399.853 533.461 401.924 531.432 403.781 529.343C405.141 527.813 406.404 526.229 407.46 524.835L399.353 548.161H371.647L363.54 524.835C364.595 526.229 365.859 527.813 367.219 529.343C369.076 531.432 371.147 533.461 373.14 534.76C375.081 536.024 377.237 536.777 379.047 535.709C380.198 535.03 380.967 533.902 381.485 532.686C382.005 531.466 382.302 530.093 382.471 528.827C382.641 527.556 382.686 526.363 382.688 525.491C382.69 525.054 382.681 524.695 382.671 524.443C382.667 524.318 382.662 524.219 382.658 524.151C382.657 524.136 382.657 524.123 382.656 524.112C382.655 524.096 382.654 524.082 382.653 524.072L382.652 524.05L382.652 524.044L382.652 524.042L382.651 524.041C382.651 524.041 382.651 524.041 381.903 524.094L382.651 524.041L382.63 523.739L382.405 523.536L378.896 520.378L375.787 515.004Z" fill="white" stroke="#FCB360" stroke-width="1.5"/>
<path d="M164.787 26.004C165.173 26.2648 165.587 26.5344 166.022 26.8044C168.421 28.2908 171.623 29.8771 174.494 29.8983C177.339 29.9194 180.541 28.4087 182.947 26.9842C183.389 26.7225 183.808 26.4608 184.199 26.2077L181.108 31.3746L177.595 34.5361L177.37 34.7388L177.348 35.0411L178.097 35.0935C177.348 35.0411 177.348 35.0413 177.348 35.0415L177.348 35.0421L177.348 35.044L177.348 35.0501L177.346 35.0716C177.346 35.0787 177.346 35.0869 177.345 35.0963C177.344 35.1115 177.343 35.1296 177.342 35.1507C177.338 35.2189 177.333 35.3178 177.328 35.4434C177.319 35.6947 177.31 36.0538 177.311 36.491C177.314 37.3635 177.359 38.5559 177.529 39.8267C177.698 41.0928 177.995 42.466 178.515 43.686C179.033 44.9016 179.801 46.0303 180.953 46.7093C182.763 47.7772 184.919 47.0238 186.859 45.7599C188.853 44.4612 190.924 42.4325 192.781 40.3432C194.141 38.8126 195.404 37.2286 196.46 35.8353L188.353 59.1605H160.647L152.54 35.8353C153.595 37.2286 154.859 38.8126 156.219 40.3432C158.076 42.4325 160.147 44.4612 162.14 45.7599C164.081 47.0238 166.237 47.7772 168.047 46.7093C169.198 46.0303 169.967 44.9016 170.485 43.686C171.005 42.466 171.302 41.0928 171.471 39.8267C171.641 38.5559 171.686 37.3635 171.688 36.491C171.69 36.0538 171.681 35.6947 171.671 35.4434C171.667 35.3178 171.662 35.2189 171.658 35.1507C171.657 35.1364 171.657 35.1235 171.656 35.1119C171.655 35.0958 171.654 35.0823 171.653 35.0716L171.652 35.0501L171.652 35.044L171.652 35.0421L171.651 35.0415C171.651 35.0413 171.651 35.0411 170.903 35.0935L171.651 35.0411L171.63 34.7388L171.405 34.5361L167.896 31.3783L164.787 26.004Z" fill="white" stroke="#666E30" stroke-width="1.5"/>
<path d="M164.787 515.004C165.173 515.265 165.587 515.534 166.022 515.804C168.421 517.291 171.623 518.877 174.494 518.898C177.339 518.919 180.541 517.409 182.947 515.984C183.389 515.723 183.808 515.461 184.199 515.208L181.108 520.375L177.595 523.536L177.37 523.739L177.348 524.041L178.097 524.094C177.348 524.041 177.348 524.041 177.348 524.041L177.348 524.042L177.348 524.044L177.348 524.05L177.346 524.072C177.346 524.079 177.346 524.087 177.345 524.096C177.344 524.111 177.343 524.13 177.342 524.151C177.338 524.219 177.333 524.318 177.328 524.443C177.319 524.695 177.31 525.054 177.311 525.491C177.314 526.363 177.359 527.556 177.529 528.827C177.698 530.093 177.995 531.466 178.515 532.686C179.033 533.902 179.801 535.03 180.953 535.709C182.763 536.777 184.919 536.024 186.859 534.76C188.853 533.461 190.924 531.432 192.781 529.343C194.141 527.813 195.404 526.229 196.46 524.835L188.353 548.161H160.647L152.54 524.835C153.595 526.229 154.859 527.813 156.219 529.343C158.076 531.432 160.147 533.461 162.14 534.76C164.081 536.024 166.237 536.777 168.047 535.709C169.198 535.03 169.967 533.902 170.485 532.686C171.005 531.466 171.302 530.093 171.471 528.827C171.641 527.556 171.686 526.363 171.688 525.491C171.69 525.054 171.681 524.695 171.671 524.443C171.667 524.318 171.662 524.219 171.658 524.151C171.657 524.136 171.657 524.123 171.656 524.112C171.655 524.096 171.654 524.082 171.653 524.072L171.652 524.05L171.652 524.044L171.652 524.042L171.651 524.041C171.651 524.041 171.651 524.041 170.903 524.094L171.651 524.041L171.63 523.739L171.405 523.536L167.896 520.378L164.787 515.004Z" fill="white" stroke="#FCB360" stroke-width="1.5"/>
<path d="M510.588 22.9296L525.093 32.4028L539.599 22.9296C536.791 24.4637 533.978 25.9438 531.566 27.1067C530.101 27.8125 528.777 28.4052 527.685 28.8225C526.619 29.2303 525.704 29.5 525.093 29.5C524.483 29.5 523.568 29.2303 522.501 28.8225C521.41 28.4052 520.085 27.8125 518.621 27.1067C516.208 25.9438 513.396 24.4637 510.588 22.9296Z" fill="white" stroke="#666E30"/>
<path d="M510.588 511.93L525.093 521.403L539.599 511.93C536.791 513.464 533.978 514.944 531.566 516.107C530.101 516.813 528.777 517.405 527.685 517.822C526.619 518.23 525.704 518.5 525.093 518.5C524.483 518.5 523.568 518.23 522.501 517.822C521.41 517.405 520.085 516.813 518.621 516.107C516.208 514.944 513.396 513.464 510.588 511.93Z" fill="white" stroke="#FCB360"/>
<path d="M20.5877 22.9296L35.0933 32.4028L49.5988 22.9296C46.7905 24.4637 43.9784 25.9438 41.5659 27.1067C40.1014 27.8125 38.7767 28.4052 37.6855 28.8225C36.619 29.2303 35.7039 29.5 35.0933 29.5C34.4826 29.5 33.5676 29.2303 32.501 28.8225C31.4098 28.4052 30.0851 27.8125 28.6207 27.1067C26.2081 25.9438 23.396 24.4637 20.5877 22.9296Z" fill="white" stroke="#666E30"/>
<path d="M20.5877 511.93L35.0933 521.403L49.5988 511.93C46.7905 513.464 43.9784 514.944 41.5659 516.107C40.1014 516.813 38.7767 517.405 37.6855 517.822C36.619 518.23 35.7039 518.5 35.0933 518.5C34.4826 518.5 33.5676 518.23 32.501 517.822C31.4098 517.405 30.0851 516.813 28.6207 516.107C26.2081 514.944 23.396 513.464 20.5877 511.93Z" fill="white" stroke="#FCB360"/>
<path d="M396 7.31418C396.051 7.23585 396.1 7.15956 396.148 7.08548C396.012 7.51599 395.839 8.00503 395.631 8.53555C395.058 9.99457 394.228 11.7473 393.204 13.4331C392.178 15.1218 390.97 16.7232 389.645 17.8966C388.317 19.073 386.918 19.7798 385.5 19.7798C384.082 19.7798 382.683 19.073 381.355 17.8966C380.03 16.7232 378.822 15.1218 377.796 13.4331C376.772 11.7473 375.942 9.99457 375.369 8.53555C375.161 8.00502 374.988 7.51598 374.852 7.08547C374.9 7.15956 374.949 7.23586 375 7.31419C375.526 8.12602 376.194 9.15662 376.964 10.2153C378.015 11.6595 379.282 13.1943 380.705 14.3719C382.123 15.5459 383.747 16.4067 385.5 16.4067C387.253 16.4067 388.877 15.5459 390.295 14.3719C391.718 13.1943 392.985 11.6595 394.036 10.2153C394.806 9.15662 395.474 8.12602 396 7.31418Z" fill="white" stroke="#666E30"/>
<path d="M396 496.314C396.051 496.236 396.1 496.16 396.148 496.085C396.012 496.516 395.839 497.005 395.631 497.535C395.058 498.995 394.228 500.747 393.204 502.433C392.178 504.122 390.97 505.723 389.645 506.897C388.317 508.073 386.918 508.78 385.5 508.78C384.082 508.78 382.683 508.073 381.355 506.897C380.03 505.723 378.822 504.122 377.796 502.433C376.772 500.747 375.942 498.995 375.369 497.535C375.161 497.005 374.988 496.516 374.852 496.085C374.9 496.16 374.949 496.236 375 496.314C375.526 497.126 376.194 498.157 376.964 499.215C378.015 500.659 379.282 502.194 380.705 503.372C382.123 504.546 383.747 505.407 385.5 505.407C387.253 505.407 388.877 504.546 390.295 503.372C391.718 502.194 392.985 500.659 394.036 499.215C394.806 498.157 395.474 497.126 396 496.314Z" fill="white" stroke="#FCB360"/>
<path d="M300.452 34.8466C302.198 36.0519 304.053 37.1937 305.94 38.1407C308.879 39.6155 312.012 40.6764 315 40.6764C317.988 40.6764 321.121 39.6155 324.06 38.1407C325.947 37.1937 327.802 36.0519 329.548 34.8466C326.05 39.6129 322.316 45.1341 319.909 49.934C318.41 52.924 316.826 56.8294 315.626 59.9566C315.404 60.5357 315.194 61.0898 315 61.6084C314.806 61.0898 314.596 60.5357 314.374 59.9566C313.174 56.8294 311.59 52.924 310.091 49.934C307.684 45.1341 303.95 39.6129 300.452 34.8466Z" fill="white" stroke="#666E30" stroke-width="3"/>
<path d="M289.659 5.75574C289.214 5.04664 288.849 4.48439 288.561 4.08593C288.638 4.55747 288.788 5.17531 289.017 5.92311C289.363 7.05553 289.877 8.44288 290.542 9.99087C291.872 13.0869 293.799 16.8043 296.178 20.3822C298.559 23.9626 301.382 27.3848 304.499 29.9072C307.619 32.4309 310.996 34.0246 314.5 34.0246C318.004 34.0246 321.381 32.4309 324.501 29.9072C327.618 27.3848 330.441 23.9626 332.822 20.3822C335.201 16.8043 337.128 13.0869 338.458 9.99087C339.123 8.44288 339.637 7.05553 339.983 5.92311C340.212 5.17531 340.362 4.55747 340.439 4.08593C340.151 4.48439 339.786 5.04664 339.341 5.75574C339.063 6.19907 338.758 6.69298 338.427 7.22811C337.173 9.25776 335.553 11.8805 333.647 14.5868C331.239 18.0067 328.356 21.5903 325.139 24.3231C321.926 27.0518 318.328 28.9769 314.5 28.9769C310.672 28.9769 307.074 27.0518 303.861 24.3231C300.644 21.5903 297.761 18.0067 295.353 14.5868C293.447 11.8805 291.827 9.25773 290.573 7.22807C290.242 6.69295 289.937 6.19906 289.659 5.75574ZM288.039 3.47158C288.039 3.47141 288.039 3.47124 288.038 3.47108C288.032 3.46673 288.032 3.4679 288.039 3.47158ZM340.961 3.47165C340.968 3.46791 340.968 3.46671 340.962 3.47108C340.961 3.47126 340.961 3.47145 340.961 3.47165Z" fill="white" stroke="#666E30"/>
<path d="M300.452 523.847C302.198 525.052 304.053 526.194 305.94 527.141C308.879 528.616 312.012 529.676 315 529.676C317.988 529.676 321.121 528.616 324.06 527.141C325.947 526.194 327.802 525.052 329.548 523.847C326.05 528.613 322.316 534.134 319.909 538.934C318.41 541.924 316.826 545.829 315.626 548.957C315.404 549.536 315.194 550.09 315 550.608C314.806 550.09 314.596 549.536 314.374 548.957C313.174 545.829 311.59 541.924 310.091 538.934C307.684 534.134 303.95 528.613 300.452 523.847Z" fill="white" stroke="#FCB360" stroke-width="3"/>
<path d="M289.659 494.756C289.214 494.047 288.849 493.484 288.561 493.086C288.638 493.557 288.788 494.175 289.017 494.923C289.363 496.056 289.877 497.443 290.542 498.991C291.872 502.087 293.799 505.804 296.178 509.382C298.559 512.963 301.382 516.385 304.499 518.907C307.619 521.431 310.996 523.025 314.5 523.025C318.004 523.025 321.381 521.431 324.501 518.907C327.618 516.385 330.441 512.963 332.822 509.382C335.201 505.804 337.128 502.087 338.458 498.991C339.123 497.443 339.637 496.056 339.983 494.923C340.212 494.175 340.362 493.557 340.439 493.086C340.151 493.484 339.786 494.047 339.341 494.756C339.063 495.199 338.758 495.693 338.427 496.228C337.173 498.258 335.553 500.88 333.647 503.587C331.239 507.007 328.356 510.59 325.139 513.323C321.926 516.052 318.328 517.977 314.5 517.977C310.672 517.977 307.074 516.052 303.861 513.323C300.644 510.59 297.761 507.007 295.353 503.587C293.447 500.88 291.827 498.258 290.573 496.228C290.242 495.693 289.937 495.199 289.659 494.756ZM288.039 492.472C288.039 492.471 288.039 492.471 288.038 492.471C288.032 492.467 288.032 492.468 288.039 492.472ZM340.961 492.472C340.968 492.468 340.968 492.467 340.962 492.471C340.961 492.471 340.961 492.471 340.961 492.472Z" fill="white" stroke="#FCB360"/>
<path d="M185 7.31418C185.051 7.23585 185.1 7.15956 185.148 7.08548C185.012 7.51599 184.839 8.00503 184.631 8.53555C184.058 9.99457 183.228 11.7473 182.204 13.4331C181.178 15.1218 179.97 16.7232 178.645 17.8966C177.317 19.073 175.918 19.7798 174.5 19.7798C173.082 19.7798 171.683 19.073 170.355 17.8966C169.03 16.7232 167.822 15.1218 166.796 13.4331C165.772 11.7473 164.942 9.99457 164.369 8.53555C164.161 8.00502 163.988 7.51598 163.852 7.08547C163.9 7.15956 163.949 7.23586 164 7.31419C164.526 8.12602 165.194 9.15662 165.964 10.2153C167.015 11.6595 168.282 13.1943 169.705 14.3719C171.123 15.5459 172.747 16.4067 174.5 16.4067C176.253 16.4067 177.877 15.5459 179.295 14.3719C180.718 13.1943 181.985 11.6595 183.036 10.2153C183.806 9.15662 184.474 8.12602 185 7.31418Z" fill="white" stroke="#666E30"/>
<path d="M185 496.314C185.051 496.236 185.1 496.16 185.148 496.085C185.012 496.516 184.839 497.005 184.631 497.535C184.058 498.995 183.228 500.747 182.204 502.433C181.178 504.122 179.97 505.723 178.645 506.897C177.317 508.073 175.918 508.78 174.5 508.78C173.082 508.78 171.683 508.073 170.355 506.897C169.03 505.723 167.822 504.122 166.796 502.433C165.772 500.747 164.942 498.995 164.369 497.535C164.161 497.005 163.988 496.516 163.852 496.085C163.9 496.16 163.949 496.236 164 496.314C164.526 497.126 165.194 498.157 165.964 499.215C167.015 500.659 168.282 502.194 169.705 503.372C171.123 504.546 172.747 505.407 174.5 505.407C176.253 505.407 177.877 504.546 179.295 503.372C180.718 502.194 181.985 500.659 183.036 499.215C183.806 498.157 184.474 497.126 185 496.314Z" fill="white" stroke="#FCB360"/>
<path d="M239.885 17.2616C239.841 17.1507 239.798 17.0458 239.758 16.9474C240.061 16.6603 240.431 16.302 240.83 15.8983C241.831 14.8845 243.097 13.5027 243.914 12.2134C244.715 10.9478 245.366 9.32664 245.86 7.84926C246.505 9.34531 247.313 10.9937 248.203 12.269C249.065 13.5048 250.338 14.8678 251.348 15.8849C251.748 16.2871 252.116 16.6453 252.418 16.9331C252.377 17.0299 252.334 17.1328 252.289 17.2416C251.955 18.0461 251.505 19.1733 251.043 20.4666C250.132 23.0163 249.121 26.3491 248.914 29.1409C248.819 30.4307 248.67 31.3657 248.549 32.1313C248.544 32.1613 248.539 32.191 248.535 32.2205C248.531 32.2416 248.528 32.2628 248.525 32.2841C248.412 32.9918 248.292 33.7495 248.379 34.4787C248.483 35.338 248.846 36.0399 249.414 36.7468C249.947 37.4087 250.727 38.156 251.761 39.1053C252.808 40.0654 253.968 40.6168 255.21 40.7024C256.437 40.787 257.572 40.4057 258.565 39.8142C260.498 38.6628 262.177 36.5444 263.518 34.4387C264.644 32.6707 265.612 30.7802 266.359 29.1772L268.475 36.8562L265.295 62.6085C265.155 62.6411 265.002 62.6758 264.836 62.7119C263.941 62.9074 262.702 63.1411 261.328 63.2964C258.476 63.6185 255.425 63.5534 253.496 62.4964C253.257 62.3651 253.151 62.2622 253.111 62.2138C253.095 62.1955 253.089 62.1843 253.087 62.1803C253.084 62.1596 253.076 61.9852 253.299 61.5559C253.525 61.1213 253.875 60.6334 254.319 60.0432C254.37 59.9758 254.422 59.9068 254.475 59.8364C254.854 59.3341 255.287 58.7613 255.629 58.201C256.006 57.5835 256.419 56.7574 256.434 55.8434C256.451 54.778 255.931 53.8775 255.015 53.2377C254.185 52.6581 253.02 52.2757 251.563 52.0105C250.077 51.7401 248.145 51.5675 245.669 51.5005C243.193 51.4336 241.253 51.5027 239.753 51.6954C238.283 51.8845 237.095 52.2084 236.233 52.7524C235.28 53.3536 234.724 54.2346 234.686 55.2984C234.652 56.2136 235.016 57.0682 235.359 57.7189C235.667 58.3014 236.063 58.9043 236.413 59.438C236.467 59.5197 236.519 59.5997 236.57 59.6778C236.982 60.309 237.312 60.8399 237.521 61.3142C237.736 61.8019 237.728 62.0253 237.713 62.0945C237.708 62.1147 237.7 62.1443 237.656 62.196C237.606 62.2557 237.493 62.363 237.253 62.493C235.226 63.5911 232.043 63.6549 229.086 63.3237C227.658 63.1637 226.373 62.923 225.444 62.7217C225.271 62.6842 225.11 62.6481 224.964 62.6143L222.515 36.8312L224.069 29.4984C224.793 30.9797 225.706 32.6726 226.761 34.2713C228.137 36.3553 229.862 38.4442 231.862 39.6098C232.884 40.2059 234.036 40.5944 235.278 40.5615C236.536 40.5281 237.751 40.0661 238.887 39.1851C240.007 38.3165 240.878 37.6321 241.504 37.0243C242.156 36.3912 242.651 35.7408 242.916 34.9022C243.165 34.114 243.162 33.2972 243.126 32.4741C243.111 32.1457 243.092 31.816 243.07 31.4605C243.032 30.8344 242.989 30.1283 242.963 29.2086C242.883 26.4042 241.945 23.0529 241.082 20.4988C240.643 19.2011 240.209 18.0694 239.885 17.2616Z" fill="white" stroke="#666E30" stroke-width="3"/>
<path d="M239.885 505.262C239.841 505.151 239.798 505.046 239.758 504.947C240.061 504.66 240.431 504.302 240.83 503.898C241.831 502.884 243.097 501.503 243.914 500.213C244.715 498.948 245.366 497.327 245.86 495.849C246.505 497.345 247.313 498.994 248.203 500.269C249.065 501.505 250.338 502.868 251.348 503.885C251.748 504.287 252.116 504.645 252.418 504.933C252.377 505.03 252.334 505.133 252.289 505.242C251.955 506.046 251.505 507.173 251.043 508.467C250.132 511.016 249.121 514.349 248.914 517.141C248.819 518.431 248.67 519.366 248.549 520.131C248.544 520.161 248.539 520.191 248.535 520.22C248.531 520.242 248.528 520.263 248.525 520.284C248.412 520.992 248.292 521.75 248.379 522.479C248.483 523.338 248.846 524.04 249.414 524.747C249.947 525.409 250.727 526.156 251.761 527.105C252.808 528.065 253.968 528.617 255.21 528.702C256.437 528.787 257.572 528.406 258.565 527.814C260.498 526.663 262.177 524.544 263.518 522.439C264.644 520.671 265.612 518.78 266.359 517.177L268.475 524.856L265.295 550.609C265.155 550.641 265.002 550.676 264.836 550.712C263.941 550.907 262.702 551.141 261.328 551.296C258.476 551.619 255.425 551.553 253.496 550.496C253.257 550.365 253.151 550.262 253.111 550.214C253.095 550.196 253.089 550.184 253.087 550.18C253.084 550.16 253.076 549.985 253.299 549.556C253.525 549.121 253.875 548.633 254.319 548.043C254.37 547.976 254.422 547.907 254.475 547.836C254.854 547.334 255.287 546.761 255.629 546.201C256.006 545.584 256.419 544.757 256.434 543.843C256.451 542.778 255.931 541.877 255.015 541.238C254.185 540.658 253.02 540.276 251.563 540.011C250.077 539.74 248.145 539.567 245.669 539.501C243.193 539.434 241.253 539.503 239.753 539.695C238.283 539.884 237.095 540.208 236.233 540.752C235.28 541.354 234.724 542.235 234.686 543.298C234.652 544.214 235.016 545.068 235.359 545.719C235.667 546.301 236.063 546.904 236.413 547.438C236.467 547.52 236.519 547.6 236.57 547.678C236.982 548.309 237.312 548.84 237.521 549.314C237.736 549.802 237.728 550.025 237.713 550.095C237.708 550.115 237.7 550.144 237.656 550.196C237.606 550.256 237.493 550.363 237.253 550.493C235.226 551.591 232.043 551.655 229.086 551.324C227.658 551.164 226.373 550.923 225.444 550.722C225.271 550.684 225.11 550.648 224.964 550.614L222.515 524.831L224.069 517.498C224.793 518.98 225.706 520.673 226.761 522.271C228.137 524.355 229.862 526.444 231.862 527.61C232.884 528.206 234.036 528.594 235.278 528.561C236.536 528.528 237.751 528.066 238.887 527.185C240.007 526.316 240.878 525.632 241.504 525.024C242.156 524.391 242.651 523.741 242.916 522.902C243.165 522.114 243.162 521.297 243.126 520.474C243.111 520.146 243.092 519.816 243.07 519.461C243.032 518.834 242.989 518.128 242.963 517.209C242.883 514.404 241.945 511.053 241.082 508.499C240.643 507.201 240.209 506.069 239.885 505.262Z" fill="white" stroke="#FCB360" stroke-width="3"/>
</svg>
